name rise49.25peak52.1432fall72.8391.mot
datacolumns 19
datarows 30
range 14.79827300000000 14.84661300000000
endheader
time	ground_force1_vx	ground_force1_vy	ground_force1_vz	ground_force1_px	ground_force1_py	ground_force1_pz	ground_force2_vx	ground_force2_vy	ground_force2_vz	ground_force2_px	ground_force2_py	ground_force2_pz	ground_torque1_x	ground_torque1_y	ground_torque1_z	ground_torque2_x	ground_torque2_y	ground_torque2_z	
14.79827300000000	15.56861600000000	726.08726899999999	38.16312400000000	0.22557400000000	0.00000000000000	0.09697300000000	0.00000000000000	0.00000000000000	0.00000000000000	0.00000000000000	0.00000000000000	0.00000000000000	0.00000000000000	14.47306500000000	0.00000000000000	0.00000000000000	0.00000000000000	0.00000000000000	
14.79993900000000	15.20840400000000	726.93319299999996	38.14418400000000	0.22455700000000	0.00000000000000	0.09691800000000	0.00000000000000	0.00000000000000	0.00000000000000	0.00000000000000	0.00000000000000	0.00000000000000	0.00000000000000	14.48312200000000	0.00000000000000	0.00000000000000	0.00000000000000	0.00000000000000	
14.80161300000000	14.84176300000000	727.78275699999995	38.13044100000000	0.22352700000000	0.00000000000000	0.09686500000000	0.00000000000000	0.00000000000000	0.00000000000000	0.00000000000000	0.00000000000000	0.00000000000000	0.00000000000000	14.49560700000000	0.00000000000000	0.00000000000000	0.00000000000000	0.00000000000000	
14.80327800000000	14.46882300000000	728.63419799999997	38.12181800000000	0.22248300000000	0.00000000000000	0.09681300000000	0.00000000000000	0.00000000000000	0.00000000000000	0.00000000000000	0.00000000000000	0.00000000000000	0.00000000000000	14.51052800000000	0.00000000000000	0.00000000000000	0.00000000000000	0.00000000000000	
14.80494200000000	14.08973000000000	729.48582399999998	38.11822700000000	0.22142800000000	0.00000000000000	0.09676200000000	0.00000000000000	0.00000000000000	0.00000000000000	0.00000000000000	0.00000000000000	0.00000000000000	0.00000000000000	14.52788900000000	0.00000000000000	0.00000000000000	0.00000000000000	0.00000000000000	
14.80660600000000	13.70464000000000	730.33601699999997	38.11957500000000	0.22036400000000	0.00000000000000	0.09671200000000	0.00000000000000	0.00000000000000	0.00000000000000	0.00000000000000	0.00000000000000	0.00000000000000	0.00000000000000	14.54769300000000	0.00000000000000	0.00000000000000	0.00000000000000	0.00000000000000	
14.80827200000000	13.31372400000000	731.18323599999997	38.12576200000000	0.21929100000000	0.00000000000000	0.09666400000000	0.00000000000000	0.00000000000000	0.00000000000000	0.00000000000000	0.00000000000000	0.00000000000000	0.00000000000000	14.56994200000000	0.00000000000000	0.00000000000000	0.00000000000000	0.00000000000000	
14.80994500000000	12.91716000000000	732.02602600000000	38.13667700000000	0.21821200000000	0.00000000000000	0.09661700000000	0.00000000000000	0.00000000000000	0.00000000000000	0.00000000000000	0.00000000000000	0.00000000000000	0.00000000000000	14.59463600000000	0.00000000000000	0.00000000000000	0.00000000000000	0.00000000000000	
14.81161300000000	12.51513900000000	732.86301800000001	38.15220400000000	0.21712900000000	0.00000000000000	0.09657000000000	0.00000000000000	0.00000000000000	0.00000000000000	0.00000000000000	0.00000000000000	0.00000000000000	0.00000000000000	14.62177200000000	0.00000000000000	0.00000000000000	0.00000000000000	0.00000000000000	
14.81327800000000	12.10785600000000	733.69293700000003	38.17222100000000	0.21604200000000	0.00000000000000	0.09652500000000	0.00000000000000	0.00000000000000	0.00000000000000	0.00000000000000	0.00000000000000	0.00000000000000	0.00000000000000	14.65134400000000	0.00000000000000	0.00000000000000	0.00000000000000	0.00000000000000	
14.81494200000000	11.69551600000000	734.51460099999997	38.19659600000000	0.21495400000000	0.00000000000000	0.09648000000000	0.00000000000000	0.00000000000000	0.00000000000000	0.00000000000000	0.00000000000000	0.00000000000000	0.00000000000000	14.68334500000000	0.00000000000000	0.00000000000000	0.00000000000000	0.00000000000000	
14.81661000000000	11.27832800000000	735.32692799999995	38.22519300000000	0.21386700000000	0.00000000000000	0.09643600000000	0.00000000000000	0.00000000000000	0.00000000000000	0.00000000000000	0.00000000000000	0.00000000000000	0.00000000000000	14.71776100000000	0.00000000000000	0.00000000000000	0.00000000000000	0.00000000000000	
14.81827400000000	10.85650600000000	736.12893699999995	38.25786600000000	0.21278100000000	0.00000000000000	0.09639200000000	0.00000000000000	0.00000000000000	0.00000000000000	0.00000000000000	0.00000000000000	0.00000000000000	0.00000000000000	14.75457900000000	0.00000000000000	0.00000000000000	0.00000000000000	0.00000000000000	
14.81993900000000	10.43026700000000	736.91974900000002	38.29446600000000	0.21169800000000	0.00000000000000	0.09634900000000	0.00000000000000	0.00000000000000	0.00000000000000	0.00000000000000	0.00000000000000	0.00000000000000	0.00000000000000	14.79377900000000	0.00000000000000	0.00000000000000	0.00000000000000	0.00000000000000	
14.82160500000000	9.99983100000000	737.69859199999996	38.33483600000000	0.21062100000000	0.00000000000000	0.09630600000000	0.00000000000000	0.00000000000000	0.00000000000000	0.00000000000000	0.00000000000000	0.00000000000000	0.00000000000000	14.83533700000000	0.00000000000000	0.00000000000000	0.00000000000000	0.00000000000000	
14.82327500000000	9.56541900000000	738.46479799999997	38.37881400000000	0.20954900000000	0.00000000000000	0.09626300000000	0.00000000000000	0.00000000000000	0.00000000000000	0.00000000000000	0.00000000000000	0.00000000000000	0.00000000000000	14.87922800000000	0.00000000000000	0.00000000000000	0.00000000000000	0.00000000000000	
14.82494100000000	9.12725400000000	739.21781099999998	38.42623400000000	0.20848500000000	0.00000000000000	0.09622100000000	0.00000000000000	0.00000000000000	0.00000000000000	0.00000000000000	0.00000000000000	0.00000000000000	0.00000000000000	14.92541800000000	0.00000000000000	0.00000000000000	0.00000000000000	0.00000000000000	
14.82660600000000	8.68555600000000	739.95717700000000	38.47692400000000	0.20743000000000	0.00000000000000	0.09617800000000	0.00000000000000	0.00000000000000	0.00000000000000	0.00000000000000	0.00000000000000	0.00000000000000	0.00000000000000	14.97387200000000	0.00000000000000	0.00000000000000	0.00000000000000	0.00000000000000	
14.82827300000000	8.24054600000000	740.68255399999998	38.53070800000000	0.20638400000000	0.00000000000000	0.09613600000000	0.00000000000000	0.00000000000000	0.00000000000000	0.00000000000000	0.00000000000000	0.00000000000000	0.00000000000000	15.02455000000000	0.00000000000000	0.00000000000000	0.00000000000000	0.00000000000000	
14.82993900000000	7.79244100000000	741.39370599999995	38.58740600000000	0.20535000000000	0.00000000000000	0.09609400000000	0.00000000000000	0.00000000000000	0.00000000000000	0.00000000000000	0.00000000000000	0.00000000000000	0.00000000000000	15.07740500000000	0.00000000000000	0.00000000000000	0.00000000000000	0.00000000000000	
14.83160500000000	7.34145800000000	742.09050100000002	38.64683700000000	0.20432700000000	0.00000000000000	0.09605100000000	0.00000000000000	0.00000000000000	0.00000000000000	0.00000000000000	0.00000000000000	0.00000000000000	0.00000000000000	15.13238600000000	0.00000000000000	0.00000000000000	0.00000000000000	0.00000000000000	
14.83327900000000	6.88780900000000	742.77291500000001	38.70881700000000	0.20331600000000	0.00000000000000	0.09600900000000	0.00000000000000	0.00000000000000	0.00000000000000	0.00000000000000	0.00000000000000	0.00000000000000	0.00000000000000	15.18943900000000	0.00000000000000	0.00000000000000	0.00000000000000	0.00000000000000	
14.83495500000000	6.43170300000000	743.44102399999997	38.77315800000000	0.20231900000000	0.00000000000000	0.09596600000000	0.00000000000000	0.00000000000000	0.00000000000000	0.00000000000000	0.00000000000000	0.00000000000000	0.00000000000000	15.24850200000000	0.00000000000000	0.00000000000000	0.00000000000000	0.00000000000000	
14.83661000000000	5.97334300000000	744.09500400000002	38.83967500000000	0.20133500000000	0.00000000000000	0.09592300000000	0.00000000000000	0.00000000000000	0.00000000000000	0.00000000000000	0.00000000000000	0.00000000000000	0.00000000000000	15.30950900000000	0.00000000000000	0.00000000000000	0.00000000000000	0.00000000000000	
14.83827600000000	5.51293200000000	744.73513000000003	38.90818000000000	0.20036600000000	0.00000000000000	0.09588000000000	0.00000000000000	0.00000000000000	0.00000000000000	0.00000000000000	0.00000000000000	0.00000000000000	0.00000000000000	15.37239100000000	0.00000000000000	0.00000000000000	0.00000000000000	0.00000000000000	
14.83994500000000	5.05066300000000	745.36176899999998	38.97848600000000	0.19941100000000	0.00000000000000	0.09583600000000	0.00000000000000	0.00000000000000	0.00000000000000	0.00000000000000	0.00000000000000	0.00000000000000	0.00000000000000	15.43706900000000	0.00000000000000	0.00000000000000	0.00000000000000	0.00000000000000	
14.84160700000000	4.58672800000000	745.97537799999998	39.05040900000000	0.19847000000000	0.00000000000000	0.09579200000000	0.00000000000000	0.00000000000000	0.00000000000000	0.00000000000000	0.00000000000000	0.00000000000000	0.00000000000000	15.50346400000000	0.00000000000000	0.00000000000000	0.00000000000000	0.00000000000000	
14.84327100000000	4.12131100000000	746.57650000000001	39.12376500000000	0.19754500000000	0.00000000000000	0.09574800000000	0.00000000000000	0.00000000000000	0.00000000000000	0.00000000000000	0.00000000000000	0.00000000000000	0.00000000000000	15.57148800000000	0.00000000000000	0.00000000000000	0.00000000000000	0.00000000000000	
14.84494400000000	3.65459300000000	747.16575799999998	39.19837300000000	0.19663400000000	0.00000000000000	0.09570300000000	0.00000000000000	0.00000000000000	0.00000000000000	0.00000000000000	0.00000000000000	0.00000000000000	0.00000000000000	15.64105100000000	0.00000000000000	0.00000000000000	0.00000000000000	0.00000000000000	
14.84661300000000	3.18674800000000	747.74385400000006	39.27405700000000	0.19573800000000	0.00000000000000	0.09565800000000	0.00000000000000	0.00000000000000	0.00000000000000	0.00000000000000	0.00000000000000	0.00000000000000	0.00000000000000	15.71205500000000	0.00000000000000	0.00000000000000	0.00000000000000	0.00000000000000	
